User Type,Username,Date,Text
,jubaca,2012-04-03T18:58Z,"DVD Galinha Pintadinha 2 DVDRip MPEG4 H264 AVC 1700Kbps 720x480 29.97fps A_AC3 224Kbps

ALTA QUALIDADE DE SOM E IMAGEM

* Codec preparado para TV SAMSUNG.

---

Video: MPEG4 Video (H264) 720x480 29.97fps [Video]
Audio: Dolby AC3 48000Hz stereo [Audio]


General
Complete name                    : GalinhaPintadinha2.mkv
Format                           : Matroska
File size                        : 596 MiB
Duration                         : 43mn 9s
Overall bit rate                 : 1 932 Kbps
Movie name                       : Avidemux
Writing application              : Lavf52.78.3
Writing library                  : Lavf52.78.3

Video
ID                               : 1
Format                           : AVC
Format/Info                      : Advanced Video Codec
Format profile                   : Main@L3.0
Format settings, CABAC           : Yes
Format settings, ReFrames        : 3 frames
Muxing mode                      : Container profile=Unknown@3.0
Codec ID                         : V_MPEG4/ISO/AVC
Duration                         : 43mn 6s
Bit rate                         : 1 669 Kbps
Nominal bit rate                 : 1 700 Kbps
Width                            : 720 pixels
Height                           : 480 pixels
Display aspect ratio             : 1.500
Frame rate mode                  : Variable
Frame rate                       : 29.970 fps
Standard                         : NTSC
Resolution                       : 8 bits
Colorimetry                      : 4:2:0
Scan type                        : Progressive
Bits/(Pixel*Frame)               : 0.161
Stream size                      : 515 MiB (86%)
Writing library                  : x264 core 98
Encoding settings                : cabac=1 / ref=3 / deblock=1:0:0 / analyse=0x1:0x111 / me=hex / subme=6 / psy=1 / psy_rd=1.00:0.00 / mixed_ref=1 / me_range=16 / chroma_me=1 / trellis=2 / 8x8dct=0 / cqm=0 / deadzone=21,11 / fast_pskip=1 / chroma_qp_offset=-2 / threads=3 / sliced_threads=0 / nr=0 / decimate=1 / interlaced=0 / constrained_intra=0 / bframes=0 / weightp=2 / keyint=300 / keyint_min=30 / scenecut=40 / intra_refresh=0 / rc_lookahead=40 / rc=2pass / mbtree=1 / bitrate=1700 / ratetol=1.0 / qcomp=0.60 / qpmin=10 / qpmax=51 / qpstep=4 / cplxblur=20.0 / qblur=0.5 / ip_ratio=1.40 / aq=1:1.00

Audio
ID                               : 2
Format                           : AC-3
Format/Info                      : Audio Coding 3
Codec ID                         : A_AC3
Duration                         : 43mn 9s
Bit rate mode                    : Constant
Bit rate                         : 224 Kbps
Channel(s)                       : 2 channels
Channel positions                : L R
Sampling rate                    : 48.0 KHz
Video delay                      : -33ms
Stream size                      : 69.1 MiB (12%)
"
